<svg width="159" height="18" viewBox="0 0 159 18" fill="none" xmlns="http://www.w3.org/2000/svg">
<path d="M6.91716 7.616C8.78916 7.616 10.2772 8.936 10.2772 11.072C10.2772 13.136 8.78916 14.552 6.91716 14.552C5.06916 14.552 3.48516 13.208 3.48516 11.072C3.48516 9.008 5.06916 7.616 6.91716 7.616ZM0.365159 0.223999V17H3.10116L3.29316 15.368C4.20516 16.784 5.66916 17.264 7.10916 17.264C10.5892 17.264 13.2052 14.96 13.2052 11.072C13.2052 6.992 10.6372 4.88 7.18116 4.88C5.93316 4.88 3.98916 5.552 3.29316 6.776V0.223999H0.365159ZM15.8452 0.223999V17H18.7492V0.223999H15.8452ZM21.8581 5.168V11.384C21.8581 15.056 23.9221 17.192 26.7541 17.192C28.4101 17.192 29.5381 16.616 30.7621 15.416L30.9541 17.024H33.5701V5.168H30.6661V11.216C30.6661 13.016 29.4421 14.528 27.6421 14.528C25.7701 14.528 24.7861 13.16 24.7861 11.36V5.168H21.8581ZM48.3693 12.128C48.8253 7.256 46.3533 4.808 42.3933 4.808C38.5533 4.808 36.1053 7.4 36.1053 11C36.1053 14.792 38.5293 17.312 42.6093 17.312C44.4093 17.312 46.4493 16.688 47.6973 15.392L45.8253 13.544C45.1533 14.24 43.7373 14.648 42.6573 14.648C40.5933 14.648 39.3213 13.592 39.1293 12.128H48.3693ZM39.1773 9.704C39.6093 8.168 40.9053 7.4 42.4893 7.4C44.1693 7.4 45.3693 8.168 45.5613 9.704H39.1773ZM60.3935 6.8C59.7215 5.624 58.2095 4.88 56.6255 4.88C53.1695 4.856 50.4575 6.992 50.4575 11.072C50.4575 15.224 53.0495 17.384 56.5535 17.36C57.8735 17.336 59.7215 16.664 60.3935 15.272L60.5375 17H63.2975V5.168H60.4895L60.3935 6.8ZM56.8895 7.496C61.4975 7.496 61.4975 14.672 56.8895 14.672C54.9455 14.672 53.3855 13.328 53.3855 11.072C53.3855 8.816 54.9455 7.496 56.8895 7.496ZM66.2573 5.168V17H69.1853V10.76C69.1853 8.576 70.6013 7.76 72.1373 7.76C73.0973 7.76 73.6493 8.024 74.2493 8.528L75.5693 5.984C74.9213 5.336 73.7453 4.856 72.5213 4.856C71.3213 4.856 70.0973 5.072 69.1853 6.536L68.9693 5.168H66.2573ZM79.0936 2.144V5.192H76.8856V7.712H79.0936V12.824C79.0936 15.776 80.7736 17.24 83.3416 17.144C84.2296 17.12 84.9256 16.976 85.7656 16.64L84.9496 14.144C84.5176 14.36 83.9896 14.504 83.5336 14.504C82.6216 14.504 81.9976 13.952 81.9976 12.824V7.712H85.2856V5.192H82.0216V1.832L79.0936 2.144ZM97.3195 6.392C95.9515 5.192 94.5595 4.832 92.7115 4.832C90.5515 4.832 87.7195 5.792 87.7195 8.528C87.7195 11.216 90.3835 12.032 92.6155 12.2C94.2955 12.296 94.9675 12.632 94.9675 13.448C94.9675 14.312 93.9355 14.888 92.8315 14.864C91.5115 14.84 89.5915 14.144 88.7515 13.208L87.3115 15.296C89.0395 17.096 90.9115 17.408 92.7835 17.408C96.1675 17.408 97.8715 15.608 97.8715 13.52C97.8715 10.376 95.0395 9.872 92.8075 9.728C91.2955 9.632 90.5995 9.2 90.5995 8.432C90.5995 7.688 91.3675 7.256 92.7595 7.256C93.8875 7.256 94.8475 7.52 95.6875 8.312L97.3195 6.392ZM101.429 2.144V5.192H99.2206V7.712H101.429V12.824C101.429 15.776 103.109 17.24 105.677 17.144C106.565 17.12 107.261 16.976 108.101 16.64L107.285 14.144C106.853 14.36 106.325 14.504 105.869 14.504C104.957 14.504 104.333 13.952 104.333 12.824V7.712H107.621V5.192H104.357V1.832L101.429 2.144ZM110.367 5.168V11.384C110.367 15.056 112.431 17.192 115.263 17.192C116.919 17.192 118.047 16.616 119.271 15.416L119.463 17.024H122.079V5.168H119.175V11.216C119.175 13.016 117.951 14.528 116.151 14.528C114.279 14.528 113.295 13.16 113.295 11.36V5.168H110.367ZM130.878 7.616C132.726 7.616 134.31 9.008 134.31 11.072C134.31 13.208 132.726 14.552 130.878 14.552C129.006 14.552 127.518 13.136 127.518 11.072C127.518 8.936 129.006 7.616 130.878 7.616ZM134.502 0.223999V6.776C133.806 5.552 131.862 4.88 130.614 4.88C127.158 4.88 124.59 6.992 124.59 11.072C124.59 14.96 127.206 17.264 130.686 17.264C132.126 17.264 133.59 16.784 134.502 15.368L134.694 17H137.43V0.223999H134.502ZM143.386 5.12V17H140.458V5.12H143.386ZM140.194 1.832C140.194 4.112 143.65 4.112 143.65 1.832C143.65 -0.448001 140.194 -0.448001 140.194 1.832ZM152.342 4.928C148.574 4.928 146.222 7.712 146.222 11.096C146.222 14.504 148.526 17.264 152.366 17.264C156.206 17.264 158.534 14.504 158.534 11.096C158.534 7.712 156.11 4.928 152.342 4.928ZM152.366 7.592C154.334 7.592 155.582 9.32 155.582 11.096C155.582 12.896 154.502 14.576 152.366 14.576C150.23 14.576 149.15 12.896 149.15 11.096C149.15 9.32 150.254 7.592 152.366 7.592Z" fill="#0D1A52"/>
</svg>
